Coordinates
version=1
nRows=5
nColumns=46
inDegrees=yes

Units are S.I. units (second, meters, Newtons, ...)
Angles are in degrees.

endheader
time	pelvis_tilt	pelvis_list	pelvis_rotation	pelvis_tx	pelvis_ty	pelvis_tz	bb_angle	bb_tx	bb_ty	bb_tz	hip_flexion_r	hip_adduction_r	hip_rotation_r	knee_angle_r	knee_angle_r_beta	ankle_angle_r	subtalar_angle_r	mtp_angle_r	crank_angle_r	hip_flexion_l	hip_adduction_l	hip_rotation_l	knee_angle_l	knee_angle_l_beta	ankle_angle_l	subtalar_angle_l	mtp_angle_l	crank_angle_l	lumbar_extension	lumbar_bending	lumbar_rotation	arm_flex_r	arm_add_r	arm_rot_r	elbow_flex_r	pro_sup_r	wrist_flex_r	wrist_dev_r	arm_flex_l	arm_add_l	arm_rot_l	elbow_flex_l	pro_sup_l	wrist_flex_l	wrist_dev_l
      5.00500000	    -34.23269342	      5.94848973	     -5.43644105	      0.30674792	      1.04513856	     -0.19517625	      0.00000000	      0.50000000	      0.00000000	      0.25000000	     73.86904579	     -5.28131436	      3.64801304	     65.17805053	      1.13757158	     11.30868213	     -2.24879941	      0.00000000	      0.00000000	     55.70046171	     -4.17159812	     -0.26447695	     70.13040235	      1.22400643	    -32.39532952	     -6.46318457	      0.00000000	      0.00000000	    -35.96482017	     -3.31506020	     -7.22651635	     56.17018334	    -11.63988377	     46.55910013	     57.55611281	     55.44816113	      0.00000000	      0.00000000	     33.89151586	    -30.02966005	     16.29554250	     83.04164578	     50.48825828	      0.00000000	      0.00000000
      5.01000000	    -34.14487516	      5.81677121	     -4.55476664	      0.30730659	      1.04482472	     -0.19498778	      0.00000000	      0.50000000	      0.00000000	      0.25000000	     71.39197394	     -5.70124427	      3.30534694	     61.70036492	      1.07687452	     11.08668700	     -3.34923768	      0.00000000	      0.00000000	     57.14086156	     -3.58282235	      0.62070222	     72.66842990	      1.26830336	    -32.68943132	     -6.75363219	      0.00000000	      0.00000000	    -35.94406662	     -2.96900663	     -7.82805796	     55.70326109	    -11.37922499	     46.22791152	     57.60784503	     55.36324474	      0.00000000	      0.00000000	     34.09016366	    -30.30123909	     16.73880958	     82.92822142	     50.51239397	      0.00000000	      0.00000000
      5.01500000	    -34.12340353	      5.65353868	     -3.75439866	      0.30799996	      1.04404047	     -0.19467143	      0.00000000	      0.50000000	      0.00000000	      0.25000000	     68.99626596	     -5.95862790	      3.02673074	     58.23752974	      1.01643664	     10.24809545	     -4.55333947	      0.00000000	      0.00000000	     58.63076505	     -3.09939116	      1.45011013	     75.26123827	      1.31355641	    -32.59765368	     -6.85103557	      0.00000000	      0.00000000	    -35.76044872	     -2.65386055	     -8.20555290	     54.44974569	    -10.22568193	     43.45023126	     57.06837042	     54.74314985	      0.00000000	      0.00000000	     34.69809851	    -30.85574004	     18.40578272	     82.47315289	     50.63339487	      0.00000000	      0.00000000
      5.02000000	    -34.08899281	      5.43447409	     -2.92641490	      0.30873506	      1.04315046	     -0.19472965	      0.00000000	      0.50000000	      0.00000000	      0.25000000	     66.58623469	     -6.24973761	      2.68530662	     54.80787114	      0.95657781	      9.45346610	     -5.70649337	      0.00000000	      0.00000000	     60.09301237	     -2.53288801	      2.28630206	     77.81914272	      1.35820026	    -32.32546180	     -7.19542424	      0.00000000	      0.00000000	    -35.61137621	     -2.25143876	     -8.58778839	     53.51238369	     -9.61248954	     41.61953318	     57.08123889	     54.38948883	      0.00000000	      0.00000000	     35.05038839	    -31.22222427	     19.43177429	     82.23709764	     50.72002197	      0.00000000	      0.00000000
      5.02500000	    -33.98297090	      5.36203557	     -2.03364749	      0.30901920	      1.04190535	     -0.19453826	      0.00000000	      0.50000000	      0.00000000	      0.25000000	     64.42919221	     -6.74828251	      2.38127711	     51.89267789	      0.90569809	      8.68624834	     -5.79997265	      0.00000000	      0.00000000	     61.50499402	     -1.79570004	      3.01807460	     80.37254064	      1.40276546	    -31.92268422	     -7.69248735	      0.00000000	      0.00000000	    -35.45310218	     -2.00240771	     -9.23406883	     52.87374590	     -9.44302420	     41.43797287	     57.11994391	     54.34849161	      0.00000000	      0.00000000	     35.22867580	    -31.55711314	     19.73318048	     82.21503955	     50.73997192	      0.00000000	      0.00000000
